# xmcd
#
# Track frame offsets:
#	182
#	15457
#	31957
#	50235
#	66365
#	79057
#	91242
#	105260
#	121160
#	132445
#	148077
#	160605
#	176492
#	193042
#
# Disc length: 2819 seconds
#
# Revision: 0
# Processed by: cddbd v1.5.2PL0 Copyright (c) Steve Scherf et al.
# Submitted via: EZCDAudioConverter 2.0.4.1
#
DISCID=b60b010e
DTITLE=Sucessos Internacionais - On The Road - Country
DYEAR=1
DGENRE=Country
TTITLE0=Achy Breaky Heart-Billy Ray Cyrus
TTITLE1=Jambalaya-Johnny Copeland
TTITLE2=There's A New Kind In Town-Kathy Matter
TTITLE3=Casy Street-Jeff Kinght
TTITLE4=A Little Less Talk And A Lot More Action-To By Keth
TTITLE5=The Thouble With Love-Becky Willians
TTITLE6=Nothing In Common But Love-Twister
TTITLE7=The Greatest Cowboy Of Themall-Johnny Cash
TTITLE8=The Ballad Of David Crockett-The Kentuck Headhunters
TTITLE9=Queen Of My Double Wide Trailer-Sammy Kershaw
TTITLE10=You Lay Whole Of Love On Me-Shania Twain
TTITLE11=The Cutting Edge Of Love Bo-"T"
TTITLE12=He's My Weakness-Ronna Reeves
TTITLE13=Lonesome Side Of Midnight-John Brannen
EXTD=
EXTT0=
EXTT1=
EXTT2=
EXTT3=
EXTT4=
EXTT5=
EXTT6=
EXTT7=
EXTT8=
EXTT9=
EXTT10=
EXTT11=
EXTT12=
EXTT13=
PLAYORDER=
